<svg id="logosandtypes_com" xmlns="http://www.w3.org/2000/svg" viewBox="0 0 150 150"><path d="M0 0h150v150H0V0z" fill="none"/><path d="M90.1 58.3c0-1.9-1.5-3.4-3.4-3.4H44.6c-3 0-5.4 2.4-5.5 5.4v47.6c-.2 6.4 4.9 11.7 11.3 11.8h52.4c6.4.1 11.7-4.9 11.8-11.3V42.2c.2-6.4-4.9-11.7-11.3-11.8H33.7L23.3 18.1h79.5c13.3 0 24.1 10.8 24.1 24v65.8c0 13.3-10.8 24.1-24.1 24.1H51c-13.3 0-24.1-10.8-24.1-24.1V60.6c0-9.9 8-18 17.9-18h49.5c4.5 0 8.1 3.6 8.1 8.1v16.5c0 3.6-2.3 6.7-5.7 7.8 3.4 1 5.7 4.2 5.8 7.7v16.7c0 4.5-3.6 8.1-8.1 8.1H59.5c-4.5 0-8.1-3.6-8.1-8.1V57.2h12.2v34.6c0 1.9 1.5 3.4 3.4 3.4h19.6c1.9 0 3.4-1.5 3.4-3.4v-7c0-1.9-1.5-3.4-3.4-3.4H65.9V68.6h20.8c1.9 0 3.4-1.5 3.4-3.4v-6.9z" fill="#43a6dd"/></svg>